<svg xmlns="http://www.w3.org/2000/svg" xmlns:xlink="http://www.w3.org/1999/xlink"><symbol id="icon-checked" viewBox="0 0 512 512"><path d="M173.898 439.404l-166.4-166.4c-9.997-9.997-9.997-26.206 0-36.204l36.203-36.204c9.997-9.998 26.207-9.998 36.204 0L192 312.69 432.095 72.596c9.997-9.997 26.207-9.997 36.204 0l36.203 36.204c9.997 9.997 9.997 26.206 0 36.204l-294.4 294.401c-9.998 9.997-26.207 9.997-36.204-.001z"/></symbol><symbol id="icon-date" viewBox="0 0 448 512"><path d="M436 160H12c-6.6 0-12-5.4-12-12v-36c0-26.5 21.5-48 48-48h48V12c0-6.6 5.4-12 12-12h40c6.6 0 12 5.4 12 12v52h128V12c0-6.6 5.4-12 12-12h40c6.6 0 12 5.4 12 12v52h48c26.5 0 48 21.5 48 48v36c0 6.6-5.4 12-12 12zM12 192h424c6.6 0 12 5.4 12 12v260c0 26.5-21.5 48-48 48H48c-26.5 0-48-21.5-48-48V204c0-6.6 5.4-12 12-12zm116 204c0-6.6-5.4-12-12-12H76c-6.6 0-12 5.4-12 12v40c0 6.6 5.4 12 12 12h40c6.6 0 12-5.4 12-12v-40zm0-128c0-6.6-5.4-12-12-12H76c-6.6 0-12 5.4-12 12v40c0 6.6 5.4 12 12 12h40c6.6 0 12-5.4 12-12v-40zm128 128c0-6.6-5.4-12-12-12h-40c-6.6 0-12 5.4-12 12v40c0 6.6 5.4 12 12 12h40c6.6 0 12-5.4 12-12v-40zm0-128c0-6.6-5.4-12-12-12h-40c-6.6 0-12 5.4-12 12v40c0 6.6 5.4 12 12 12h40c6.6 0 12-5.4 12-12v-40zm128 128c0-6.6-5.4-12-12-12h-40c-6.6 0-12 5.4-12 12v40c0 6.6 5.4 12 12 12h40c6.6 0 12-5.4 12-12v-40zm0-128c0-6.6-5.4-12-12-12h-40c-6.6 0-12 5.4-12 12v40c0 6.6 5.4 12 12 12h40c6.6 0 12-5.4 12-12v-40z"/></symbol><symbol id="icon-dropdown" viewBox="0 0 320 512"><path d="M143 352.3L7 216.3c-9.4-9.4-9.4-24.6 0-33.9l22.6-22.6c9.4-9.4 24.6-9.4 33.9 0l96.4 96.4 96.4-96.4c9.4-9.4 24.6-9.4 33.9 0l22.6 22.6c9.4 9.4 9.4 24.6 0 33.9l-136 136c-9.2 9.4-24.4 9.4-33.8 0z"/></symbol><symbol id="icon-member" viewBox="0 0 448 512"><path d="M224 256c70.7 0 128-57.3 128-128S294.7 0 224 0 96 57.3 96 128s57.3 128 128 128zm89.6 32h-16.7c-22.2 10.2-46.9 16-72.9 16s-50.6-5.8-72.9-16h-16.7C60.2 288 0 348.2 0 422.4V464c0 26.5 21.5 48 48 48h352c26.5 0 48-21.5 48-48v-41.6c0-74.2-60.2-134.4-134.4-134.4z"/></symbol><symbol id="icon-num" viewBox="20 20 20 20">&gt;<path class="d-svg-icons d-svg-icons_num" d="M25.4 33.8h-1.3v-5.1-1.4l-.3.3c-.1.1-.5.4-1.2 1l-.6-.9 2.3-1.8h1.1v7.9zM32.1 33.8h-5.3v-1l2-2c.6-.6 1-1 1.2-1.3s.3-.5.4-.7.1-.5.1-.7c0-.4-.1-.6-.3-.8-.2-.2-.5-.3-.9-.3-.3 0-.6.1-.9.2-.3.1-.6.3-1 .6l-.7-.8c.4-.4.9-.6 1.3-.8.4-.2.9-.2 1.3-.2.7 0 1.3.2 1.8.6.4.4.7.9.7 1.5 0 .4-.1.7-.2 1s-.3.6-.6 1c-.3.3-.7.8-1.3 1.4l-1.4 1.3v.1H32v.9zM37.8 27.7c0 .5-.1.9-.4 1.2-.3.3-.7.6-1.2.7.6.1 1.1.3 1.4.6.3.3.5.7.5 1.2 0 .8-.3 1.3-.8 1.7s-1.3.6-2.3.6c-.9 0-1.6-.1-2.2-.4v-1.1c.3.2.7.3 1.1.4.4.1.7.1 1.1.1.6 0 1.1-.1 1.4-.3.3-.2.5-.6.5-1s-.2-.7-.5-.9-.9-.3-1.6-.3h-.7v-1h.7c1.3 0 1.9-.4 1.9-1.3 0-.3-.1-.6-.3-.8-.2-.2-.5-.3-1-.3-.3 0-.6 0-.9.1-.3.1-.6.2-1 .5l-.6-.9c.7-.5 1.6-.8 2.5-.8.8 0 1.4.2 1.9.5s.5.9.5 1.5z"/></symbol><symbol id="icon-pencil" viewBox="0 0 512 512"><path d="M497.9 142.1l-46.1 46.1c-4.7 4.7-12.3 4.7-17 0l-111-111c-4.7-4.7-4.7-12.3 0-17l46.1-46.1c18.7-18.7 49.1-18.7 67.9 0l60.1 60.1c18.8 18.7 18.8 49.1 0 67.9zM284.2 99.8L21.6 362.4.4 483.9c-2.9 16.4 11.4 30.6 27.8 27.8l121.5-21.3 262.6-262.6c4.7-4.7 4.7-12.3 0-17l-111-111c-4.8-4.7-12.4-4.7-17.1 0zM124.1 339.9c-5.5-5.5-5.5-14.3 0-19.8l154-154c5.5-5.5 14.3-5.5 19.8 0s5.5 14.3 0 19.8l-154 154c-5.5 5.5-14.3 5.5-19.8 0zM88 424h48v36.3l-64.5 11.3-31.1-31.1L51.7 376H88v48z"/></symbol><symbol id="icon-plus" viewBox="0 0 448 512"><path d="M416 208H272V64c0-17.67-14.33-32-32-32h-32c-17.67 0-32 14.33-32 32v144H32c-17.67 0-32 14.33-32 32v32c0 17.67 14.33 32 32 32h144v144c0 17.67 14.33 32 32 32h32c17.67 0 32-14.33 32-32V304h144c17.67 0 32-14.33 32-32v-32c0-17.67-14.33-32-32-32z"/></symbol><symbol id="icon-remove" viewBox="0 0 352 512"><path d="M242.72 256l100.07-100.07c12.28-12.28 12.28-32.19 0-44.48l-22.24-22.24c-12.28-12.28-32.19-12.28-44.48 0L176 189.28 75.93 89.21c-12.28-12.28-32.19-12.28-44.48 0L9.21 111.45c-12.28 12.28-12.28 32.19 0 44.48L109.28 256 9.21 356.07c-12.28 12.28-12.28 32.19 0 44.48l22.24 22.24c12.28 12.28 32.2 12.28 44.48 0L176 322.72l100.07 100.07c12.28 12.28 32.2 12.28 44.48 0l22.24-22.24c12.28-12.28 12.28-32.19 0-44.48L242.72 256z"/></symbol><symbol id="icon-text" viewBox="0 20 20 20"><path class="d-svg-icons d-svg-icons_text" d="M5.3 33.1c-.6.6-1.4.8-2.4.8-.7 0-1.2-.2-1.7-.5-.3-.4-.5-.9-.5-1.4 0-1.6 1.4-2.4 4.1-2.4h.6c0-.5 0-.8-.1-1.1s-.3-.3-.5-.5-.6-.2-1.1-.2c-1.1 0-1.6.4-1.7 1.1H.9c.1-1.4 1.1-2.1 2.9-2.1.9 0 1.5.2 2 .5s.7 1 .7 2v4.4H5.3v-.6zm0-1.1v-1.5h-.8c-1.7 0-2.6.5-2.6 1.4 0 .3.1.6.4.8.3.2.6.3 1 .3s.8-.1 1.1-.3.7-.4.9-.7zM8.7 27.8c.5-.6 1.2-1 1.9-1 .9 0 1.6.3 2 .9s.7 1.5.7 2.5c0 1.1-.3 2-.8 2.6-.5.6-1.2 1-2 1-.7 0-1.3-.2-1.8-.7v.5H7.5v-9.3h1.2v3.5zm0 4.4c.5.5 1.1.8 1.8.8.5 0 .9-.2 1.2-.7s.5-1.1.5-2c0-.8-.1-1.5-.4-1.9s-.7-.6-1.2-.6c-.7 0-1.3.4-1.8 1.2v3.2zM16.8 33.9c-1 0-1.7-.3-2.3-.9-.6-.6-.9-1.5-.9-2.6s.3-2 .9-2.6 1.3-.9 2.3-.9c.7 0 1.4.2 1.8.6.5.4.8.9.9 1.6h-1.2c0-.4-.2-.7-.5-.9-.3-.2-.6-.3-1-.3-.6 0-1 .2-1.4.7s-.5 1.1-.5 1.9c0 .9.2 1.5.5 1.9s.8.7 1.4.7c.4 0 .7-.1 1-.3.3-.2.4-.5.5-.9h1.2c-.1.7-.4 1.2-.9 1.6-.4.2-1.1.4-1.8.4z"/></symbol><symbol id="icon-time" viewBox="0 0 512 512"><path d="M256 8C119 8 8 119 8 256s111 248 248 248 248-111 248-248S393 8 256 8zm57.1 350.1L224.9 294c-3.1-2.3-4.9-5.9-4.9-9.7V116c0-6.6 5.4-12 12-12h48c6.6 0 12 5.4 12 12v137.7l63.5 46.2c5.4 3.9 6.5 11.4 2.6 16.8l-28.2 38.8c-3.9 5.3-11.4 6.5-16.8 2.6z"/></symbol></svg>