<?xml version="1.0" encoding="UTF-8"?>
<!DOCTYPE svg PUBLIC "-//W3C//DTD SVG 1.1//EN" "http://www.w3.org/Graphics/SVG/1.1/DTD/svg11.dtd">
<svg xmlns="http://www.w3.org/2000/svg" xmlns:xlink="http://www.w3.org/1999/xlink" version="1.2" baseProfile="tiny" xml:space="preserve" viewBox="40 0 25 25">
    <rect x="43.8" y="1" class="d-svg-icons d-svg-icons_date" width="1.3" height="2.5"/>
    <rect x="55" y="1" class="d-svg-icons d-svg-icon__date" width="1.3" height="2.5"/>
    <path class="d-svg-icons d-svg-icons_date" d="M57.5,2.3v2.5h-3.8V2.3h-7.5v2.5h-3.8V2.3H40v16.2h20V2.3H57.5z M43.8,17.3h-2.5v-2.5h2.5V17.3z M43.8,13.5
h-2.5V11h2.5V13.5z M43.8,9.8h-2.5V7.3h2.5V9.8z M47.5,17.3H45v-2.5h2.5V17.3z M47.5,13.5H45V11h2.5V13.5z M47.5,9.8H45V7.3h2.5
V9.8z M51.3,17.3h-2.5v-2.5h2.5V17.3z M51.3,13.5h-2.5V11h2.5V13.5z M51.3,9.8h-2.5V7.3h2.5V9.8z M55,17.3h-2.5v-2.5H55V17.3z
M55,13.5h-2.5V11H55V13.5z M55,9.8h-2.5V7.3H55V9.8z M58.8,17.3h-2.5v-2.5h2.5V17.3z M58.8,13.5h-2.5V11h2.5V13.5z M58.8,9.8
h-2.5V7.3h2.5V9.8z"/>
</svg>