<?xml version="1.0" encoding="UTF-8"?>
<!DOCTYPE svg PUBLIC "-//W3C//DTD SVG 1.1//EN" "http://www.w3.org/Graphics/SVG/1.1/DTD/svg11.dtd">
<svg xmlns="http://www.w3.org/2000/svg" xmlns:xlink="http://www.w3.org/1999/xlink" version="1.2" baseProfile="tiny" xml:space="preserve" viewBox="80 0 25 25">
    <path class="d-svg-icons d-svg-icons_member" d="M89.1,1.2c-0.7,0-0.1,0.2-0.5,0.3c-0.4,0.1,0.5-0.1-0.6,0.2c-1.1,0.2-1.4,1.7-1.4,2.2c-0.1,0.5-0.1,0.7,0,1.5
c0.1,0.5-0.4,0.5-0.4,0.5c-0.7,0-0.8,2.1-0.8,2.1c0.1,0.5,0,0.8,1,1.2c0.5,1.4,1.7,2,1.7,2s0.1,0.9,0.1,1.5
c-0.1-0.1-0.2,1.6-3.3,2c-3.1,0.5-3.7,1.5-4.3,2C80,17.2,80,19.8,80,19.8h20c0,0-0.1-2.6-0.7-3.1c-0.6-0.6-1.2-1.6-4.3-2
c-3.1-0.5-2.9-2-2.9-2.1c0-0.2,0.1-1.3,0.1-1.3s1-0.8,1.5-2.2c0.7-0.5,1-0.5,1.2-1.1c0,0,0.3-2.1-0.5-2.1c0,0-0.9,0.1-0.8-0.4
c0.1-0.5,0.1-0.7,0-1.2c-0.1-0.5,0.3-2.1-0.9-2.3c-0.8-0.1-0.5,0.1-0.9,0C91.4,2,91,1,90.3,1L89.1,1.2z"/>
</svg>