<?xml version="1.0" encoding="UTF-8"?>
<!DOCTYPE svg PUBLIC "-//W3C//DTD SVG 1.1//EN" "http://www.w3.org/Graphics/SVG/1.1/DTD/svg11.dtd">
<svg xmlns="http://www.w3.org/2000/svg" xmlns:xlink="http://www.w3.org/1999/xlink" version="1.2" baseProfile="tiny" xml:space="preserve" viewBox="60 0 25 25">
    <rect x="69.1" y="5.8" class="d-svg-icons d-svg-icons_time" width="1.2" height="6.1"/>
    <path class="d-svg-icons d-svg-icons_time" d="M78.3,6.2l-0.8-1l-1.6,1.3c-1.3-1.7-3.3-2.8-5.5-3V2.2h2.4V1h-6.1v1.2h2.4v1.3c-4,0.3-7.1,3.7-7.1,7.7
c0,4.3,3.5,7.8,7.8,7.8c4.3,0,7.8-3.5,7.8-7.8c0-1.3-0.3-2.6-0.9-3.7L78.3,6.2z M69.7,18c-3.8,0-6.8-3-6.8-6.8
c0-3.8,3-6.8,6.8-6.8c3.8,0,6.8,3,6.8,6.8C76.5,15,73.5,18,69.7,18z"/>
</svg>