<svg xmlns="http://www.w3.org/2000/svg" xmlns:xlink="http://www.w3.org/1999/xlink"><symbol id="icon-checked" viewBox="40 20 30 30"><path class="d-svg-icons d-svg-icons_checked" d="M55.1 20l-8.4 8.4-4.5-4.5-2.2 2.2 6.7 6.6 10.6-10.5z"/></symbol><symbol id="icon-date" viewBox="40 0 25 25"><path class="d-svg-icons d-svg-icons_date" d="M43.8 1h1.3v2.5h-1.3z"/><path class="d-svg-icons d-svg-icon__date" d="M55 1h1.3v2.5H55z"/><path class="d-svg-icons d-svg-icons_date" d="M57.5 2.3v2.5h-3.8V2.3h-7.5v2.5h-3.8V2.3H40v16.2h20V2.3h-2.5zm-13.7 15h-2.5v-2.5h2.5v2.5zm0-3.8h-2.5V11h2.5v2.5zm0-3.7h-2.5V7.3h2.5v2.5zm3.7 7.5H45v-2.5h2.5v2.5zm0-3.8H45V11h2.5v2.5zm0-3.7H45V7.3h2.5v2.5zm3.8 7.5h-2.5v-2.5h2.5v2.5zm0-3.8h-2.5V11h2.5v2.5zm0-3.7h-2.5V7.3h2.5v2.5zm3.7 7.5h-2.5v-2.5H55v2.5zm0-3.8h-2.5V11H55v2.5zm0-3.7h-2.5V7.3H55v2.5zm3.8 7.5h-2.5v-2.5h2.5v2.5zm0-3.8h-2.5V11h2.5v2.5zm0-3.7h-2.5V7.3h2.5v2.5z"/></symbol><symbol id="icon-dropdown" viewBox="20 0 40 40"><path class="d-svg-icons d-svg-icons_dropdown" d="M37.8 5L30 12.8 22.2 5 20 7.2l10 9.9 10-9.9z"/></symbol><symbol id="icon-member" viewBox="80 0 25 25"><path class="d-svg-icons d-svg-icons_member" d="M89.1 1.2c-.7 0-.1.2-.5.3-.4.1.5-.1-.6.2-1.1.2-1.4 1.7-1.4 2.2-.1.5-.1.7 0 1.5.1.5-.4.5-.4.5-.7 0-.8 2.1-.8 2.1.1.5 0 .8 1 1.2.5 1.4 1.7 2 1.7 2s.1.9.1 1.5c-.1-.1-.2 1.6-3.3 2-3.1.5-3.7 1.5-4.3 2-.6.5-.6 3.1-.6 3.1h20s-.1-2.6-.7-3.1c-.6-.6-1.2-1.6-4.3-2-3.1-.5-2.9-2-2.9-2.1 0-.2.1-1.3.1-1.3s1-.8 1.5-2.2c.7-.5 1-.5 1.2-1.1 0 0 .3-2.1-.5-2.1 0 0-.9.1-.8-.4.1-.5.1-.7 0-1.2s.3-2.1-.9-2.3c-.8-.1-.5.1-.9 0-.4 0-.8-1-1.5-1l-1.2.2z"/></symbol><symbol id="icon-num" viewBox="20 20 20 20">&gt;<path class="d-svg-icons d-svg-icons_num" d="M25.4 33.8h-1.3v-5.1-1.4l-.3.3c-.1.1-.5.4-1.2 1l-.6-.9 2.3-1.8h1.1v7.9zM32.1 33.8h-5.3v-1l2-2c.6-.6 1-1 1.2-1.3s.3-.5.4-.7.1-.5.1-.7c0-.4-.1-.6-.3-.8-.2-.2-.5-.3-.9-.3-.3 0-.6.1-.9.2-.3.1-.6.3-1 .6l-.7-.8c.4-.4.9-.6 1.3-.8.4-.2.9-.2 1.3-.2.7 0 1.3.2 1.8.6.4.4.7.9.7 1.5 0 .4-.1.7-.2 1s-.3.6-.6 1c-.3.3-.7.8-1.3 1.4l-1.4 1.3v.1H32v.9zM37.8 27.7c0 .5-.1.9-.4 1.2-.3.3-.7.6-1.2.7.6.1 1.1.3 1.4.6.3.3.5.7.5 1.2 0 .8-.3 1.3-.8 1.7s-1.3.6-2.3.6c-.9 0-1.6-.1-2.2-.4v-1.1c.3.2.7.3 1.1.4.4.1.7.1 1.1.1.6 0 1.1-.1 1.4-.3.3-.2.5-.6.5-1s-.2-.7-.5-.9-.9-.3-1.6-.3h-.7v-1h.7c1.3 0 1.9-.4 1.9-1.3 0-.3-.1-.6-.3-.8-.2-.2-.5-.3-1-.3-.3 0-.6 0-.9.1-.3.1-.6.2-1 .5l-.6-.9c.7-.5 1.6-.8 2.5-.8.8 0 1.4.2 1.9.5s.5.9.5 1.5z"/></symbol><symbol id="icon-pencil" viewBox="0 0 20 20"><path class="d-svg-icons d-svg-icons_pencil" d="M15.8 5.9l-1.5-1.6s-.4-.6-1-.1l-1 1.1 2.5 2.4 1-1s.5-.3 0-.8zM5.7 11.9l2.7 2.3 5.9-5.8-2.7-2.5zM3.9 16l3.7-1.1-2.7-2.2z"/></symbol><symbol id="icon-plus" viewBox="60 20 20 20"><path class="d-svg-icons d-svg-icons_plus" d="M70 23c.6 0 1 .4 1 1v12c0 .6-.4 1-1 1s-1-.4-1-1V24c0-.6.4-1 1-1z"/><path class="d-svg-icons d-svg-icons_plus" d="M64 29h12c.6 0 1 .4 1 1s-.4 1-1 1H64c-.6 0-1-.4-1-1s.4-1 1-1z"/></symbol><symbol id="icon-remove" viewBox="0 0 40 40"><path class="d-svg-icons d-svg-icons_remove" d="M20 3.5L16.5 0 10 6.5 3.5 0 0 3.5 6.5 10 0 16.5 3.5 20l6.5-6.5 6.5 6.5 3.5-3.5-6.5-6.5z"/></symbol><symbol id="icon-text" viewBox="0 20 20 20"><path class="d-svg-icons d-svg-icons_text" d="M5.3 33.1c-.6.6-1.4.8-2.4.8-.7 0-1.2-.2-1.7-.5-.3-.4-.5-.9-.5-1.4 0-1.6 1.4-2.4 4.1-2.4h.6c0-.5 0-.8-.1-1.1s-.3-.3-.5-.5-.6-.2-1.1-.2c-1.1 0-1.6.4-1.7 1.1H.9c.1-1.4 1.1-2.1 2.9-2.1.9 0 1.5.2 2 .5s.7 1 .7 2v4.4H5.3v-.6zm0-1.1v-1.5h-.8c-1.7 0-2.6.5-2.6 1.4 0 .3.1.6.4.8.3.2.6.3 1 .3s.8-.1 1.1-.3.7-.4.9-.7zM8.7 27.8c.5-.6 1.2-1 1.9-1 .9 0 1.6.3 2 .9s.7 1.5.7 2.5c0 1.1-.3 2-.8 2.6-.5.6-1.2 1-2 1-.7 0-1.3-.2-1.8-.7v.5H7.5v-9.3h1.2v3.5zm0 4.4c.5.5 1.1.8 1.8.8.5 0 .9-.2 1.2-.7s.5-1.1.5-2c0-.8-.1-1.5-.4-1.9s-.7-.6-1.2-.6c-.7 0-1.3.4-1.8 1.2v3.2zM16.8 33.9c-1 0-1.7-.3-2.3-.9-.6-.6-.9-1.5-.9-2.6s.3-2 .9-2.6 1.3-.9 2.3-.9c.7 0 1.4.2 1.8.6.5.4.8.9.9 1.6h-1.2c0-.4-.2-.7-.5-.9-.3-.2-.6-.3-1-.3-.6 0-1 .2-1.4.7s-.5 1.1-.5 1.9c0 .9.2 1.5.5 1.9s.8.7 1.4.7c.4 0 .7-.1 1-.3.3-.2.4-.5.5-.9h1.2c-.1.7-.4 1.2-.9 1.6-.4.2-1.1.4-1.8.4z"/></symbol><symbol id="icon-time" viewBox="60 0 25 25"><path class="d-svg-icons d-svg-icons_time" d="M69.1 5.8h1.2v6.1h-1.2z"/><path class="d-svg-icons d-svg-icons_time" d="M78.3 6.2l-.8-1-1.6 1.3c-1.3-1.7-3.3-2.8-5.5-3V2.2h2.4V1h-6.1v1.2h2.4v1.3c-4 .3-7.1 3.7-7.1 7.7 0 4.3 3.5 7.8 7.8 7.8s7.8-3.5 7.8-7.8c0-1.3-.3-2.6-.9-3.7l1.6-1.3zM69.7 18c-3.8 0-6.8-3-6.8-6.8s3-6.8 6.8-6.8 6.8 3 6.8 6.8-3 6.8-6.8 6.8z"/></symbol></svg>