<?xml version="1.0" encoding="UTF-8"?>
<!DOCTYPE svg PUBLIC "-//W3C//DTD SVG 1.1//EN" "http://www.w3.org/Graphics/SVG/1.1/DTD/svg11.dtd">
<svg xmlns="http://www.w3.org/2000/svg" xmlns:xlink="http://www.w3.org/1999/xlink" version="1.2" baseProfile="tiny" xml:space="preserve" viewBox="20 20 20 20">>
    <path class="d-svg-icons d-svg-icons_num" d="M25.4,33.8h-1.3v-5.1c0-0.6,0-1.1,0-1.4c-0.1,0.1-0.2,0.2-0.3,0.3c-0.1,0.1-0.5,0.4-1.2,1L22,27.7l2.3-1.8
h1.1V33.8z"/>
    <path class="d-svg-icons d-svg-icons_num" d="M32.1,33.8h-5.3v-1l2-2c0.6-0.6,1-1,1.2-1.3s0.3-0.5,0.4-0.7s0.1-0.5,0.1-0.7c0-0.4-0.1-0.6-0.3-0.8
c-0.2-0.2-0.5-0.3-0.9-0.3c-0.3,0-0.6,0.1-0.9,0.2c-0.3,0.1-0.6,0.3-1,0.6l-0.7-0.8c0.4-0.4,0.9-0.6,1.3-0.8
c0.4-0.2,0.9-0.2,1.3-0.2c0.7,0,1.3,0.2,1.8,0.6c0.4,0.4,0.7,0.9,0.7,1.5c0,0.4-0.1,0.7-0.2,1s-0.3,0.6-0.6,1
c-0.3,0.3-0.7,0.8-1.3,1.4l-1.4,1.3v0.1h3.7V33.8z"/>
    <path class="d-svg-icons d-svg-icons_num" d="M37.8,27.7c0,0.5-0.1,0.9-0.4,1.2c-0.3,0.3-0.7,0.6-1.2,0.7v0c0.6,0.1,1.1,0.3,1.4,0.6
c0.3,0.3,0.5,0.7,0.5,1.2c0,0.8-0.3,1.3-0.8,1.7s-1.3,0.6-2.3,0.6c-0.9,0-1.6-0.1-2.2-0.4v-1.1c0.3,0.2,0.7,0.3,1.1,0.4
c0.4,0.1,0.7,0.1,1.1,0.1c0.6,0,1.1-0.1,1.4-0.3c0.3-0.2,0.5-0.6,0.5-1c0-0.4-0.2-0.7-0.5-0.9s-0.9-0.3-1.6-0.3h-0.7v-1h0.7
c1.3,0,1.9-0.4,1.9-1.3c0-0.3-0.1-0.6-0.3-0.8c-0.2-0.2-0.5-0.3-1-0.3c-0.3,0-0.6,0-0.9,0.1c-0.3,0.1-0.6,0.2-1,0.5l-0.6-0.9
c0.7-0.5,1.6-0.8,2.5-0.8c0.8,0,1.4,0.2,1.9,0.5S37.8,27.1,37.8,27.7z"/>
</svg>