<?xml version="1.0" encoding="UTF-8"?>
<!DOCTYPE svg PUBLIC "-//W3C//DTD SVG 1.1//EN" "http://www.w3.org/Graphics/SVG/1.1/DTD/svg11.dtd">
<svg xmlns="http://www.w3.org/2000/svg" xmlns:xlink="http://www.w3.org/1999/xlink" version="1.2" baseProfile="tiny" xml:space="preserve" viewBox="0 20 20 20">
    <path class="d-svg-icons d-svg-icons_text" d="M5.3,33.1c-0.6,0.6-1.4,0.8-2.4,0.8c-0.7,0-1.2-0.2-1.7-0.5C0.9,33,0.7,32.5,0.7,32c0-1.6,1.4-2.4,4.1-2.4
h0.6c0-0.5,0-0.8-0.1-1.1S5,28.2,4.8,28s-0.6-0.2-1.1-0.2c-1.1,0-1.6,0.4-1.7,1.1H0.9c0.1-1.4,1.1-2.1,2.9-2.1
c0.9,0,1.5,0.2,2,0.5s0.7,1,0.7,2v4.4H5.3V33.1z M5.3,32v-1.5H4.5c-1.7,0-2.6,0.5-2.6,1.4c0,0.3,0.1,0.6,0.4,0.8
c0.3,0.2,0.6,0.3,1,0.3c0.4,0,0.8-0.1,1.1-0.3S5.1,32.3,5.3,32z"/>
    <path class="d-svg-icons d-svg-icons_text" d="M8.7,27.8c0.5-0.6,1.2-1,1.9-1c0.9,0,1.6,0.3,2,0.9s0.7,1.5,0.7,2.5c0,1.1-0.3,2-0.8,2.6c-0.5,0.6-1.2,1-2,1
c-0.7,0-1.3-0.2-1.8-0.7v0.5H7.5v-9.3h1.2V27.8z M8.7,32.2c0.5,0.5,1.1,0.8,1.8,0.8c0.5,0,0.9-0.2,1.2-0.7s0.5-1.1,0.5-2
c0-0.8-0.1-1.5-0.4-1.9s-0.7-0.6-1.2-0.6c-0.7,0-1.3,0.4-1.8,1.2V32.2z"/>
    <path class="d-svg-icons d-svg-icons_text" d="M16.8,33.9c-1,0-1.7-0.3-2.3-0.9c-0.6-0.6-0.9-1.5-0.9-2.6c0-1.1,0.3-2,0.9-2.6s1.3-0.9,2.3-0.9
c0.7,0,1.4,0.2,1.8,0.6c0.5,0.4,0.8,0.9,0.9,1.6h-1.2c0-0.4-0.2-0.7-0.5-0.9c-0.3-0.2-0.6-0.3-1-0.3c-0.6,0-1,0.2-1.4,0.7
s-0.5,1.1-0.5,1.9c0,0.9,0.2,1.5,0.5,1.9s0.8,0.7,1.4,0.7c0.4,0,0.7-0.1,1-0.3c0.3-0.2,0.4-0.5,0.5-0.9h1.2
c-0.1,0.7-0.4,1.2-0.9,1.6C18.2,33.7,17.5,33.9,16.8,33.9z"/>
</svg>